<svg xmlns="http://www.w3.org/2000/svg" xmlns:xlink="http://www.w3.org/1999/xlink" width="40" zoomAndPan="magnify" viewBox="0 0 30 30.000001" height="40" preserveAspectRatio="xMidYMid meet" version="1.0"><defs><clipPath id="17ab24492a"><path d="M 15 6 L 26.847656 6 L 26.847656 25 L 15 25 Z M 15 6 " clip-rule="nonzero"/></clipPath><clipPath id="7600cf80b4"><path d="M 23 7 L 26.847656 7 L 26.847656 10 L 23 10 Z M 23 7 " clip-rule="nonzero"/></clipPath><clipPath id="3e231b04c5"><path d="M 2.171875 4 L 21 4 L 21 28.269531 L 2.171875 28.269531 Z M 2.171875 4 " clip-rule="nonzero"/></clipPath></defs><path stroke-linecap="round" transform="matrix(0.0158682, 0, 0, 0.0158682, 0.820548, 1.254318)" fill="none" stroke-linejoin="round" d="M 428.811573 130.689819 L 548.449712 130.689819 C 548.449712 -15.042235 769.755654 -15.042235 769.755654 130.689819 C 944.781821 130.689819 921.641933 105.58058 921.641933 280.114409 C 921.641933 297.838578 907.117962 312.36255 889.393793 312.36255 L 428.811573 312.36255 C 382.039461 312.36255 396.563432 236.296325 396.563432 163.184129 C 396.563432 145.213791 411.087404 130.689819 428.811573 130.689819 Z M 428.811573 130.689819 " stroke="#000000" stroke-width="40" stroke-opacity="1" stroke-miterlimit="2.613"/><g clip-path="url(#17ab24492a)"><path fill="#ffbd59" d="M 15.996094 24.125 C 15.792969 24.125 15.640625 23.9375 15.683594 23.738281 L 16.652344 19.3125 L 23.421875 7.589844 C 24.160156 6.308594 26.101562 6.542969 26.492188 7.992188 C 26.605469 8.425781 26.546875 8.878906 26.324219 9.265625 C 25.695312 10.359375 19.601562 20.964844 19.496094 21.066406 L 16.207031 24.042969 C 16.148438 24.097656 16.070312 24.125 15.996094 24.125 Z M 17.226562 19.585938 L 16.511719 22.910156 L 19.03125 20.628906 L 25.777344 8.945312 C 26.453125 7.773438 24.664062 6.707031 23.972656 7.90625 Z M 17.226562 19.585938 " fill-opacity="1" fill-rule="evenodd"/></g><path fill="#ffbd59" d="M 19.28125 21.148438 C 19.09375 21.148438 17.09375 19.933594 16.769531 19.746094 C 16.40625 19.535156 16.726562 18.988281 17.085938 19.195312 L 19.441406 20.554688 C 19.722656 20.714844 19.601562 21.148438 19.28125 21.148438 Z M 19.28125 21.148438 " fill-opacity="1" fill-rule="evenodd"/><g clip-path="url(#7600cf80b4)"><path fill="#ffbd59" d="M 25.746094 9.949219 C 25.558594 9.949219 23.558594 8.734375 23.234375 8.546875 C 22.871094 8.339844 23.191406 7.789062 23.550781 8 L 25.90625 9.359375 C 26.1875 9.519531 26.066406 9.949219 25.746094 9.949219 Z M 25.746094 9.949219 " fill-opacity="1" fill-rule="evenodd"/></g><path fill="#ffbd59" d="M 18.105469 20.46875 C 17.863281 20.46875 17.707031 20.207031 17.832031 19.992188 L 24.296875 8.792969 C 24.503906 8.433594 25.054688 8.75 24.84375 9.113281 L 18.378906 20.308594 C 18.320312 20.410156 18.214844 20.46875 18.105469 20.46875 Z M 18.105469 20.46875 " fill-opacity="1" fill-rule="evenodd"/><g clip-path="url(#3e231b04c5)"><path fill="#ffbd59" d="M 18.566406 28.335938 L 3.992188 28.335938 C 2.988281 28.335938 2.171875 27.519531 2.171875 26.515625 L 2.171875 6.058594 C 2.171875 5.054688 2.988281 4.238281 3.992188 4.238281 L 7.113281 4.238281 C 7.53125 4.238281 7.53125 4.875 7.113281 4.875 L 3.992188 4.875 C 3.339844 4.875 2.808594 5.40625 2.808594 6.058594 L 2.808594 26.515625 C 2.808594 27.171875 3.339844 27.699219 3.992188 27.699219 L 18.566406 27.699219 C 19.21875 27.699219 19.75 27.171875 19.75 26.515625 L 19.75 19.46875 C 19.75 19.050781 20.382812 19.050781 20.382812 19.46875 L 20.382812 26.515625 C 20.382812 27.519531 19.570312 28.335938 18.566406 28.335938 Z M 20.066406 14.351562 C 19.890625 14.351562 19.75 14.210938 19.75 14.035156 L 19.75 6.058594 C 19.75 5.40625 19.21875 4.875 18.566406 4.875 L 15.445312 4.875 C 15.027344 4.875 15.027344 4.238281 15.445312 4.238281 L 18.566406 4.238281 C 19.570312 4.238281 20.382812 5.054688 20.382812 6.058594 L 20.382812 14.035156 C 20.382812 14.210938 20.242188 14.351562 20.066406 14.351562 Z M 20.066406 14.351562 " fill-opacity="1" fill-rule="evenodd"/></g><path fill="#ffbd59" d="M 14.933594 6.53125 L 7.625 6.53125 C 7.167969 6.53125 6.792969 6.15625 6.792969 5.699219 L 6.792969 3.84375 C 6.792969 3.382812 7.167969 3.011719 7.625 3.011719 L 9.230469 3.011719 C 9.585938 0.6875 12.96875 0.6875 13.328125 3.011719 L 14.933594 3.011719 C 15.390625 3.011719 15.761719 3.382812 15.761719 3.84375 L 15.761719 5.699219 C 15.761719 6.15625 15.390625 6.53125 14.933594 6.53125 Z M 7.625 3.644531 C 7.519531 3.644531 7.429688 3.734375 7.429688 3.84375 L 7.429688 5.699219 C 7.429688 5.804688 7.519531 5.894531 7.625 5.894531 L 14.933594 5.894531 C 15.039062 5.894531 15.128906 5.804688 15.128906 5.699219 L 15.128906 3.84375 C 15.128906 3.734375 15.039062 3.644531 14.933594 3.644531 L 13.035156 3.644531 C 12.859375 3.644531 12.71875 3.503906 12.71875 3.328125 C 12.71875 1.433594 9.839844 1.433594 9.839844 3.328125 C 9.839844 3.503906 9.695312 3.644531 9.523438 3.644531 Z M 7.625 3.644531 " fill-opacity="1" fill-rule="evenodd"/><path fill="#ffbd59" d="M 11.277344 4.390625 C 9.976562 4.390625 9.976562 2.410156 11.277344 2.410156 C 12.582031 2.410156 12.582031 4.390625 11.277344 4.390625 Z M 11.277344 3.046875 C 10.8125 3.046875 10.8125 3.753906 11.277344 3.753906 C 11.746094 3.753906 11.746094 3.046875 11.277344 3.046875 Z M 11.277344 3.046875 " fill-opacity="1" fill-rule="evenodd"/><path fill="#ffbd59" d="M 15.96875 10.464844 L 8.238281 10.464844 C 7.820312 10.464844 7.820312 9.832031 8.238281 9.832031 L 15.96875 9.832031 C 16.386719 9.832031 16.386719 10.464844 15.96875 10.464844 Z M 15.96875 10.464844 " fill-opacity="1" fill-rule="evenodd"/><path fill="#ffbd59" d="M 5.566406 11.285156 C 5.320312 11.285156 4.851562 10.65625 4.554688 10.335938 C 4.269531 10.027344 4.734375 9.597656 5.019531 9.90625 L 5.578125 10.507812 L 6.984375 9.105469 C 7.277344 8.808594 7.726562 9.257812 7.429688 9.550781 L 5.792969 11.191406 C 5.730469 11.25 5.652344 11.285156 5.566406 11.285156 Z M 5.566406 11.285156 " fill-opacity="1" fill-rule="evenodd"/><path fill="#ffbd59" d="M 15.96875 15.109375 L 8.238281 15.109375 C 7.820312 15.109375 7.820312 14.476562 8.238281 14.476562 L 15.96875 14.476562 C 16.386719 14.476562 16.386719 15.109375 15.96875 15.109375 Z M 15.96875 15.109375 " fill-opacity="1" fill-rule="evenodd"/><path fill="#ffbd59" d="M 5.566406 15.929688 C 5.320312 15.929688 4.847656 15.300781 4.550781 14.980469 C 4.269531 14.671875 4.734375 14.242188 5.019531 14.550781 L 5.574219 15.15625 L 6.980469 13.75 C 7.277344 13.453125 7.726562 13.902344 7.429688 14.199219 L 5.792969 15.835938 C 5.730469 15.898438 5.652344 15.929688 5.566406 15.929688 Z M 5.566406 15.929688 " fill-opacity="1" fill-rule="evenodd"/><path fill="#ffbd59" d="M 15.011719 19.753906 L 8.238281 19.753906 C 7.820312 19.753906 7.820312 19.121094 8.238281 19.121094 L 15.011719 19.121094 C 15.429688 19.121094 15.429688 19.753906 15.011719 19.753906 Z M 15.011719 19.753906 " fill-opacity="1" fill-rule="evenodd"/><path fill="#ffbd59" d="M 5.566406 20.574219 C 5.320312 20.574219 4.847656 19.945312 4.554688 19.625 C 4.269531 19.316406 4.738281 18.886719 5.019531 19.195312 L 5.578125 19.800781 L 6.984375 18.394531 C 7.277344 18.097656 7.726562 18.546875 7.429688 18.84375 L 5.792969 20.480469 C 5.730469 20.542969 5.652344 20.574219 5.566406 20.574219 Z M 5.566406 20.574219 " fill-opacity="1" fill-rule="evenodd"/><path fill="#ffbd59" d="M 14.320312 24.398438 L 8.238281 24.398438 C 7.820312 24.398438 7.820312 23.765625 8.238281 23.765625 L 14.320312 23.765625 C 14.738281 23.765625 14.738281 24.398438 14.320312 24.398438 Z M 14.320312 24.398438 " fill-opacity="1" fill-rule="evenodd"/><path fill="#ffbd59" d="M 5.566406 25.21875 C 5.320312 25.21875 4.847656 24.589844 4.554688 24.269531 C 4.269531 23.960938 4.738281 23.53125 5.019531 23.839844 L 5.578125 24.445312 L 6.984375 23.039062 C 7.277344 22.742188 7.726562 23.191406 7.429688 23.488281 L 5.792969 25.125 C 5.730469 25.1875 5.652344 25.21875 5.566406 25.21875 Z M 5.566406 25.21875 " fill-opacity="1" fill-rule="evenodd"/></svg>