<svg xmlns="http://www.w3.org/2000/svg" xmlns:xlink="http://www.w3.org/1999/xlink" width="40" zoomAndPan="magnify" viewBox="0 0 30 30.000001" height="40" preserveAspectRatio="xMidYMid meet" version="1.0"><defs><clipPath id="4812be268f"><path d="M 0.484375 8 L 29.515625 8 L 29.515625 23.96875 L 0.484375 23.96875 Z M 0.484375 8 " clip-rule="nonzero"/></clipPath><clipPath id="a04f785f70"><path d="M 2 5.097656 L 28 5.097656 L 28 23 L 2 23 Z M 2 5.097656 " clip-rule="nonzero"/></clipPath></defs><g clip-path="url(#4812be268f)"><path fill="#ffbd59" d="M 27.773438 8.351562 L 27.769531 8.402344 L 26.6875 20.382812 L 26.640625 20.929688 L 26.09375 20.859375 L 25.6875 20.804688 C 24.875 20.699219 24.074219 20.644531 23.308594 20.644531 C 19.617188 20.644531 17.371094 21.890625 16.363281 22.632812 L 15 22.738281 L 14.996094 22.738281 L 13.636719 22.632812 C 12.628906 21.890625 10.382812 20.644531 6.691406 20.644531 C 5.925781 20.644531 5.125 20.699219 4.308594 20.804688 L 3.902344 20.859375 L 3.355469 20.929688 L 3.308594 20.382812 L 2.230469 8.402344 L 2.222656 8.351562 L 0.5 8.351562 L 2.257812 21.921875 L 13.839844 23.925781 L 16.15625 23.925781 L 27.738281 21.921875 L 29.496094 8.351562 L 27.773438 8.351562 " fill-opacity="1" fill-rule="nonzero"/></g><g clip-path="url(#a04f785f70)"><path fill="#ffbd59" d="M 4.191406 7.628906 L 4.257812 8.316406 L 5.144531 17.640625 L 5.449219 17.6875 C 5.503906 17.691406 9.78125 18.347656 12.664062 20.535156 C 11.28125 19.890625 9.320312 19.324219 6.714844 19.324219 C 6.035156 19.324219 5.316406 19.363281 4.546875 19.449219 L 3.550781 8.351562 L 3.492188 7.695312 C 3.734375 7.667969 3.964844 7.648438 4.191406 7.628906 Z M 11.363281 7.601562 C 13.277344 8.617188 14.292969 9.777344 14.589844 10.15625 L 14.589844 21.269531 C 12.101562 18.246094 7.167969 17.1875 5.871094 16.957031 L 5.046875 8.238281 L 4.824219 5.914062 C 7.660156 6.050781 9.808594 6.777344 11.363281 7.601562 Z M 15.40625 10.15625 C 15.703125 9.777344 16.71875 8.617188 18.636719 7.601562 C 20.1875 6.777344 22.335938 6.050781 25.175781 5.914062 L 24.953125 8.238281 L 24.125 16.957031 C 22.832031 17.1875 17.898438 18.246094 15.40625 21.269531 Z M 25.738281 8.316406 L 25.804688 7.628906 C 26.03125 7.648438 26.265625 7.667969 26.507812 7.695312 L 26.449219 8.351562 L 25.449219 19.449219 C 24.683594 19.363281 23.964844 19.324219 23.285156 19.324219 C 20.679688 19.324219 18.71875 19.890625 17.332031 20.535156 C 20.21875 18.347656 24.492188 17.691406 24.550781 17.6875 L 24.855469 17.640625 Z M 3.832031 20.335938 L 4.242188 20.285156 C 7.039062 19.914062 9.230469 20.207031 10.867188 20.703125 C 11.027344 20.753906 11.183594 20.804688 11.332031 20.859375 C 11.484375 20.910156 11.625 20.964844 11.765625 21.019531 C 11.90625 21.078125 12.039062 21.132812 12.171875 21.1875 C 12.816406 21.476562 13.332031 21.78125 13.726562 22.050781 C 13.804688 22.105469 13.878906 22.160156 13.949219 22.210938 L 16.050781 22.210938 C 16.117188 22.160156 16.191406 22.105469 16.269531 22.050781 C 16.664062 21.78125 17.183594 21.476562 17.828125 21.1875 C 17.957031 21.132812 18.089844 21.078125 18.230469 21.019531 C 18.371094 20.964844 18.515625 20.910156 18.664062 20.859375 C 18.816406 20.804688 18.96875 20.753906 19.132812 20.703125 C 20.769531 20.207031 22.957031 19.914062 25.753906 20.285156 L 26.164062 20.335938 L 27.242188 8.351562 L 27.363281 6.996094 L 26.984375 6.953125 C 26.597656 6.90625 26.230469 6.867188 25.878906 6.84375 L 26.046875 5.097656 L 25.601562 5.109375 C 21.710938 5.210938 19.015625 6.335938 17.269531 7.460938 C 16.125 8.203125 15.390625 8.945312 15 9.402344 L 15 9.398438 L 14.996094 9.402344 C 14.605469 8.945312 13.871094 8.203125 12.726562 7.460938 C 10.980469 6.335938 8.285156 5.210938 4.398438 5.109375 L 3.953125 5.097656 L 4.117188 6.84375 C 3.769531 6.867188 3.398438 6.90625 3.015625 6.953125 L 2.632812 6.996094 L 2.753906 8.351562 L 3.832031 20.335938 " fill-opacity="1" fill-rule="nonzero"/></g></svg>