<svg xmlns="http://www.w3.org/2000/svg" xmlns:xlink="http://www.w3.org/1999/xlink" width="40" zoomAndPan="magnify" viewBox="0 0 30 30.000001" height="40" preserveAspectRatio="xMidYMid meet" version="1.0"><defs><clipPath id="7f4c84444b"><path d="M 4 20 L 21 20 L 21 27.890625 L 4 27.890625 Z M 4 20 " clip-rule="nonzero"/></clipPath><clipPath id="06f96b2626"><path d="M 0.484375 12 L 4 12 L 4 14 L 0.484375 14 Z M 0.484375 12 " clip-rule="nonzero"/></clipPath><clipPath id="4a220ab9bf"><path d="M 0.484375 26 L 4 26 L 4 27.890625 L 0.484375 27.890625 Z M 0.484375 26 " clip-rule="nonzero"/></clipPath><clipPath id="402823dcfa"><path d="M 23 1.035156 L 25 1.035156 L 25 4 L 23 4 Z M 23 1.035156 " clip-rule="nonzero"/></clipPath><clipPath id="572e9f13dd"><path d="M 20 1.035156 L 22 1.035156 L 22 5 L 20 5 Z M 20 1.035156 " clip-rule="nonzero"/></clipPath><clipPath id="39487815dc"><path d="M 2 1.035156 L 5 1.035156 L 5 4 L 2 4 Z M 2 1.035156 " clip-rule="nonzero"/></clipPath><clipPath id="57082e47d2"><path d="M 6 1.035156 L 7 1.035156 L 7 5 L 6 5 Z M 6 1.035156 " clip-rule="nonzero"/></clipPath><clipPath id="e495feddb8"><path d="M 26 11 L 29.515625 11 L 29.515625 15 L 26 15 Z M 26 11 " clip-rule="nonzero"/></clipPath></defs><path fill="#ffbd59" d="M 4.867188 19.492188 C 4.726562 19.492188 4.609375 19.378906 4.609375 19.234375 L 4.609375 8.21875 C 4.609375 7.710938 5.019531 7.300781 5.527344 7.300781 L 6.945312 7.300781 C 7.085938 7.300781 7.203125 7.417969 7.203125 7.558594 C 7.203125 7.703125 7.085938 7.820312 6.945312 7.820312 L 5.527344 7.820312 C 5.308594 7.820312 5.128906 8 5.128906 8.21875 L 5.128906 19.234375 C 5.128906 19.378906 5.011719 19.492188 4.867188 19.492188 Z M 4.867188 19.492188 " fill-opacity="1" fill-rule="nonzero"/><g clip-path="url(#7f4c84444b)"><path fill="#ffbd59" d="M 19.257812 27.535156 L 5.527344 27.535156 C 5.019531 27.535156 4.609375 27.125 4.609375 26.617188 L 4.609375 20.707031 C 4.609375 20.5625 4.726562 20.445312 4.867188 20.445312 C 5.011719 20.445312 5.128906 20.5625 5.128906 20.707031 L 5.128906 26.617188 C 5.128906 26.839844 5.308594 27.019531 5.527344 27.019531 L 19.257812 27.019531 C 19.476562 27.019531 19.65625 26.839844 19.65625 26.617188 L 19.65625 25.203125 C 19.65625 25.058594 19.773438 24.941406 19.917969 24.941406 C 20.058594 24.941406 20.175781 25.058594 20.175781 25.203125 L 20.175781 26.617188 C 20.175781 27.125 19.765625 27.535156 19.257812 27.535156 Z M 19.257812 27.535156 " fill-opacity="1" fill-rule="nonzero"/></g><path fill="#ffbd59" d="M 2.503906 14.363281 C 2.410156 14.363281 2.316406 14.3125 2.269531 14.222656 L 1.328125 12.371094 C 1.265625 12.242188 1.316406 12.089844 1.441406 12.023438 C 1.570312 11.957031 1.726562 12.007812 1.792969 12.136719 L 2.734375 13.984375 C 2.796875 14.113281 2.75 14.269531 2.621094 14.335938 C 2.582031 14.355469 2.542969 14.363281 2.503906 14.363281 Z M 2.503906 14.363281 " fill-opacity="1" fill-rule="nonzero"/><g clip-path="url(#06f96b2626)"><path fill="#ffbd59" d="M 1.105469 13.910156 C 1.011719 13.910156 0.921875 13.859375 0.875 13.769531 C 0.808594 13.640625 0.863281 13.484375 0.988281 13.417969 L 2.839844 12.476562 C 2.964844 12.410156 3.121094 12.460938 3.1875 12.589844 C 3.253906 12.71875 3.203125 12.875 3.074219 12.9375 L 1.222656 13.882812 C 1.1875 13.898438 1.148438 13.910156 1.105469 13.910156 Z M 1.105469 13.910156 " fill-opacity="1" fill-rule="nonzero"/></g><g clip-path="url(#4a220ab9bf)"><path fill="#ffbd59" d="M 2.757812 27.964844 C 2.675781 27.964844 2.59375 27.925781 2.546875 27.855469 C 2.175781 27.328125 1.445312 27.203125 0.917969 27.574219 C 0.800781 27.65625 0.640625 27.628906 0.558594 27.511719 C 0.472656 27.394531 0.503906 27.230469 0.621094 27.148438 C 0.90625 26.945312 1.085938 26.632812 1.109375 26.289062 C 1.121094 26.144531 1.242188 26.039062 1.386719 26.046875 C 1.53125 26.058594 1.636719 26.183594 1.628906 26.324219 C 1.613281 26.507812 1.574219 26.679688 1.503906 26.84375 C 1.628906 26.835938 1.753906 26.84375 1.878906 26.867188 C 2.003906 26.886719 2.125 26.921875 2.242188 26.972656 C 2.234375 26.820312 2.246094 26.671875 2.277344 26.523438 C 2.308594 26.382812 2.449219 26.296875 2.589844 26.328125 C 2.730469 26.359375 2.816406 26.496094 2.785156 26.636719 C 2.714844 26.957031 2.777344 27.285156 2.96875 27.554688 C 2.96875 27.554688 2.96875 27.554688 2.96875 27.558594 C 3.050781 27.675781 3.023438 27.835938 2.90625 27.917969 C 2.859375 27.949219 2.808594 27.964844 2.757812 27.964844 Z M 2.757812 27.964844 " fill-opacity="1" fill-rule="nonzero"/></g><path fill="#ffbd59" d="M 26.269531 21.308594 C 26.230469 21.308594 26.1875 21.308594 26.144531 21.304688 C 25.503906 21.230469 25.042969 20.652344 25.113281 20.011719 C 25.121094 19.949219 25.128906 19.890625 25.148438 19.835938 C 25.191406 19.699219 25.335938 19.621094 25.472656 19.664062 C 25.609375 19.707031 25.6875 19.851562 25.644531 19.988281 C 25.636719 20.015625 25.632812 20.042969 25.628906 20.070312 C 25.589844 20.425781 25.847656 20.746094 26.199219 20.789062 C 26.554688 20.828125 26.878906 20.570312 26.917969 20.214844 C 26.957031 19.867188 26.714844 19.550781 26.367188 19.5 C 26.222656 19.480469 26.125 19.347656 26.144531 19.207031 C 26.167969 19.066406 26.296875 18.96875 26.441406 18.988281 C 27.066406 19.078125 27.503906 19.644531 27.433594 20.273438 C 27.367188 20.867188 26.855469 21.308594 26.269531 21.308594 Z M 26.269531 21.308594 " fill-opacity="1" fill-rule="nonzero"/><path fill="#ffbd59" d="M 21.472656 22.867188 C 21.328125 22.867188 21.214844 22.75 21.214844 22.609375 L 21.214844 16.726562 C 21.214844 16.582031 21.328125 16.464844 21.472656 16.464844 C 21.617188 16.464844 21.734375 16.582031 21.734375 16.726562 L 21.734375 22.609375 C 21.734375 22.75 21.617188 22.867188 21.472656 22.867188 Z M 21.472656 22.867188 " fill-opacity="1" fill-rule="nonzero"/><path fill="#ffbd59" d="M 21.472656 13.765625 C 21.328125 13.765625 21.214844 13.648438 21.214844 13.507812 L 21.214844 6.546875 C 21.214844 6.246094 20.96875 6.003906 20.667969 6.003906 L 7.75 6.003906 C 7.449219 6.003906 7.203125 6.246094 7.203125 6.546875 L 7.203125 10.121094 C 7.203125 10.265625 7.085938 10.382812 6.945312 10.382812 C 6.800781 10.382812 6.683594 10.265625 6.683594 10.121094 L 6.683594 6.546875 C 6.683594 5.960938 7.160156 5.484375 7.75 5.484375 L 20.667969 5.484375 C 21.253906 5.484375 21.734375 5.960938 21.734375 6.546875 L 21.734375 13.507812 C 21.734375 13.648438 21.617188 13.765625 21.472656 13.765625 Z M 21.472656 13.765625 " fill-opacity="1" fill-rule="nonzero"/><path fill="#ffbd59" d="M 20.667969 25.460938 L 8.972656 25.460938 C 7.710938 25.460938 6.683594 24.433594 6.683594 23.171875 L 6.683594 11.96875 C 6.683594 11.828125 6.800781 11.710938 6.945312 11.710938 C 7.085938 11.710938 7.203125 11.828125 7.203125 11.96875 L 7.203125 23.171875 C 7.203125 24.148438 7.996094 24.941406 8.972656 24.941406 L 20.667969 24.941406 C 20.8125 24.941406 20.929688 25.058594 20.929688 25.203125 C 20.929688 25.34375 20.8125 25.460938 20.667969 25.460938 Z M 20.667969 25.460938 " fill-opacity="1" fill-rule="nonzero"/><path fill="#ffbd59" d="M 8.589844 25.425781 C 8.464844 25.425781 8.355469 25.335938 8.332031 25.210938 C 8.308594 25.070312 8.402344 24.933594 8.542969 24.910156 C 8.84375 24.859375 9.414062 24.703125 9.875 24.238281 C 10.3125 23.835938 10.53125 23.289062 10.53125 22.609375 C 10.53125 22.464844 10.644531 22.347656 10.789062 22.347656 L 17.609375 22.347656 C 17.753906 22.347656 17.871094 22.464844 17.871094 22.609375 C 17.871094 22.75 17.753906 22.867188 17.609375 22.867188 L 11.039062 22.867188 C 10.988281 23.582031 10.714844 24.171875 10.234375 24.613281 C 9.679688 25.167969 8.992188 25.359375 8.632812 25.421875 C 8.617188 25.421875 8.605469 25.425781 8.589844 25.425781 Z M 8.589844 25.425781 " fill-opacity="1" fill-rule="nonzero"/><path fill="#ffbd59" d="M 20.976562 25.460938 L 8.972656 25.460938 C 8.828125 25.460938 8.714844 25.34375 8.714844 25.203125 C 8.714844 25.058594 8.828125 24.941406 8.972656 24.941406 L 20.976562 24.941406 C 21.667969 24.941406 22.316406 24.695312 22.800781 24.25 C 23.214844 23.871094 23.46875 23.390625 23.535156 22.867188 L 18.878906 22.867188 C 18.734375 22.867188 18.621094 22.75 18.621094 22.609375 C 18.621094 22.464844 18.734375 22.347656 18.878906 22.347656 L 23.808594 22.347656 C 23.953125 22.347656 24.066406 22.464844 24.066406 22.609375 C 24.066406 23.375 23.742188 24.09375 23.152344 24.632812 C 22.570312 25.167969 21.800781 25.460938 20.976562 25.460938 Z M 20.976562 25.460938 " fill-opacity="1" fill-rule="nonzero"/><path fill="#ffbd59" d="M 10.796875 7.820312 C 10.773438 7.820312 10.746094 7.816406 10.722656 7.808594 C 10.53125 7.757812 10.34375 7.730469 10.164062 7.730469 C 10.074219 7.730469 9.980469 7.738281 9.875 7.75 C 9.773438 7.765625 9.667969 7.789062 9.550781 7.816406 C 9.550781 7.972656 9.546875 8.207031 9.535156 8.515625 C 9.601562 8.511719 9.832031 8.488281 10.230469 8.449219 C 10.457031 8.429688 10.597656 8.417969 10.660156 8.417969 C 10.726562 8.417969 10.789062 8.4375 10.839844 8.484375 C 10.886719 8.527344 10.914062 8.585938 10.914062 8.660156 C 10.914062 8.800781 10.835938 8.878906 10.6875 8.898438 C 10.59375 8.90625 10.453125 8.917969 10.261719 8.933594 C 10.09375 8.953125 9.84375 8.976562 9.503906 9.003906 C 9.496094 9.152344 9.492188 9.273438 9.492188 9.367188 C 9.492188 9.597656 9.503906 9.730469 9.53125 9.761719 C 9.546875 9.777344 9.621094 9.785156 9.753906 9.785156 C 9.828125 9.785156 9.941406 9.785156 10.085938 9.78125 C 10.234375 9.777344 10.34375 9.773438 10.417969 9.773438 C 10.441406 9.773438 10.476562 9.769531 10.523438 9.765625 C 10.570312 9.757812 10.605469 9.753906 10.625 9.753906 C 10.695312 9.753906 10.753906 9.773438 10.800781 9.8125 C 10.855469 9.855469 10.886719 9.917969 10.886719 9.996094 C 10.886719 10.128906 10.816406 10.207031 10.675781 10.234375 C 10.558594 10.257812 10.3125 10.269531 9.941406 10.269531 C 9.554688 10.269531 9.304688 10.214844 9.1875 10.113281 C 9.058594 9.996094 8.996094 9.75 8.996094 9.367188 C 8.996094 9.207031 9.007812 8.96875 9.027344 8.652344 C 9.050781 8.335938 9.0625 8.097656 9.0625 7.941406 C 9.0625 7.898438 9.058594 7.839844 9.046875 7.757812 C 9.035156 7.675781 9.027344 7.617188 9.027344 7.574219 C 9.027344 7.394531 9.109375 7.304688 9.277344 7.304688 C 9.328125 7.304688 9.375 7.320312 9.421875 7.347656 C 9.558594 7.3125 9.6875 7.289062 9.8125 7.273438 C 9.933594 7.253906 10.050781 7.246094 10.160156 7.246094 C 10.460938 7.246094 10.699219 7.28125 10.875 7.347656 C 10.984375 7.390625 11.039062 7.464844 11.039062 7.574219 C 11.039062 7.636719 11.019531 7.691406 10.976562 7.738281 C 10.929688 7.792969 10.867188 7.820312 10.796875 7.820312 Z M 10.796875 7.820312 " fill-opacity="1" fill-rule="nonzero"/><path fill="#ffbd59" d="M 13.566406 7.796875 C 13.410156 7.976562 13.289062 8.125 13.207031 8.242188 C 13.117188 8.375 12.972656 8.566406 12.773438 8.816406 C 12.898438 8.988281 13.019531 9.160156 13.144531 9.335938 C 13.292969 9.539062 13.425781 9.707031 13.539062 9.835938 C 13.585938 9.886719 13.605469 9.941406 13.605469 9.996094 C 13.605469 10.0625 13.582031 10.121094 13.53125 10.167969 C 13.480469 10.21875 13.421875 10.242188 13.351562 10.242188 C 13.234375 10.242188 13.082031 10.105469 12.894531 9.835938 C 12.84375 9.757812 12.765625 9.644531 12.65625 9.488281 C 12.609375 9.421875 12.53125 9.320312 12.433594 9.183594 C 12.285156 9.347656 12.101562 9.550781 11.878906 9.789062 C 11.808594 9.871094 11.699219 9.988281 11.550781 10.140625 C 11.5 10.191406 11.4375 10.214844 11.371094 10.214844 C 11.304688 10.214844 11.242188 10.191406 11.191406 10.144531 C 11.140625 10.09375 11.117188 10.039062 11.117188 9.972656 C 11.117188 9.914062 11.136719 9.863281 11.179688 9.816406 C 11.25 9.738281 11.359375 9.625 11.5 9.472656 C 11.65625 9.304688 11.867188 9.074219 12.128906 8.78125 C 12.007812 8.628906 11.882812 8.480469 11.75 8.328125 C 11.738281 8.316406 11.671875 8.230469 11.546875 8.070312 C 11.464844 7.964844 11.390625 7.882812 11.324219 7.832031 C 11.253906 7.777344 11.222656 7.714844 11.222656 7.640625 C 11.222656 7.578125 11.246094 7.519531 11.292969 7.46875 C 11.339844 7.421875 11.402344 7.394531 11.472656 7.394531 C 11.535156 7.394531 11.621094 7.441406 11.726562 7.53125 C 11.800781 7.597656 11.863281 7.664062 11.914062 7.730469 C 11.960938 7.796875 12.035156 7.890625 12.132812 8.019531 C 12.246094 8.148438 12.355469 8.277344 12.460938 8.410156 C 12.613281 8.214844 12.761719 8.015625 12.90625 7.820312 C 13.136719 7.535156 13.292969 7.394531 13.378906 7.394531 C 13.445312 7.394531 13.507812 7.417969 13.558594 7.46875 C 13.609375 7.515625 13.632812 7.570312 13.632812 7.636719 C 13.632812 7.695312 13.609375 7.746094 13.566406 7.796875 Z M 13.566406 7.796875 " fill-opacity="1" fill-rule="nonzero"/><path fill="#ffbd59" d="M 15.941406 10.144531 C 15.847656 10.144531 15.753906 10.03125 15.660156 9.816406 C 15.597656 9.675781 15.542969 9.515625 15.5 9.335938 C 15.410156 9.347656 15.269531 9.359375 15.070312 9.375 C 14.882812 9.386719 14.742188 9.402344 14.640625 9.417969 C 14.585938 9.550781 14.492188 9.746094 14.355469 10.007812 C 14.304688 10.089844 14.234375 10.132812 14.140625 10.132812 C 14.074219 10.132812 14.015625 10.113281 13.964844 10.066406 C 13.914062 10.023438 13.886719 9.964844 13.886719 9.898438 C 13.886719 9.839844 13.972656 9.632812 14.144531 9.285156 C 14.128906 9.246094 14.121094 9.214844 14.125 9.183594 C 14.128906 9.125 14.1875 9.082031 14.296875 9.046875 C 14.464844 8.757812 14.652344 8.457031 14.855469 8.144531 C 15.152344 7.695312 15.335938 7.472656 15.402344 7.472656 C 15.53125 7.472656 15.621094 7.550781 15.664062 7.707031 C 15.6875 7.835938 15.726562 8.023438 15.777344 8.277344 C 15.847656 8.617188 15.9375 9.007812 16.039062 9.445312 C 16.046875 9.480469 16.078125 9.558594 16.128906 9.679688 C 16.171875 9.78125 16.195312 9.859375 16.195312 9.910156 C 16.195312 9.976562 16.167969 10.035156 16.117188 10.082031 C 16.066406 10.125 16.007812 10.148438 15.941406 10.144531 Z M 15.28125 8.328125 C 15.1875 8.484375 15.0625 8.699219 14.898438 8.972656 C 14.953125 8.960938 15.035156 8.953125 15.148438 8.945312 C 15.28125 8.9375 15.363281 8.929688 15.398438 8.925781 C 15.371094 8.773438 15.332031 8.574219 15.28125 8.328125 Z M 15.28125 8.328125 " fill-opacity="1" fill-rule="nonzero"/><path fill="#ffbd59" d="M 17.320312 8.691406 C 17.265625 8.882812 17.191406 9.171875 17.097656 9.558594 C 17.074219 9.691406 17.054688 9.824219 17.03125 9.957031 C 16.984375 10.125 16.894531 10.210938 16.765625 10.210938 C 16.683594 10.210938 16.617188 10.183594 16.570312 10.125 C 16.53125 10.078125 16.511719 10.023438 16.511719 9.957031 C 16.511719 9.765625 16.550781 9.535156 16.632812 9.257812 C 16.753906 8.84375 16.820312 8.617188 16.828125 8.570312 C 16.863281 8.390625 16.898438 8.207031 16.933594 8.023438 C 16.988281 7.773438 17.046875 7.609375 17.105469 7.523438 C 17.167969 7.441406 17.246094 7.398438 17.34375 7.398438 C 17.449219 7.398438 17.527344 7.453125 17.578125 7.5625 C 17.625 7.664062 17.679688 7.875 17.730469 8.195312 C 17.785156 8.503906 17.863281 8.835938 17.964844 9.191406 C 18.101562 8.839844 18.226562 8.453125 18.339844 8.035156 L 18.441406 7.625 C 18.503906 7.457031 18.601562 7.371094 18.734375 7.371094 C 18.863281 7.371094 18.960938 7.472656 19.023438 7.667969 C 19.050781 7.746094 19.078125 7.894531 19.105469 8.109375 C 19.175781 8.613281 19.261719 9.046875 19.367188 9.40625 C 19.472656 9.769531 19.523438 9.96875 19.523438 10 C 19.523438 10.070312 19.496094 10.128906 19.441406 10.175781 C 19.386719 10.21875 19.328125 10.242188 19.265625 10.242188 C 19.136719 10.242188 19.039062 10.148438 18.976562 9.964844 L 18.878906 9.535156 C 18.820312 9.320312 18.757812 9.015625 18.695312 8.617188 C 18.640625 8.777344 18.550781 9.027344 18.429688 9.363281 L 18.324219 9.691406 C 18.277344 9.820312 18.234375 9.925781 18.1875 10.007812 C 18.125 10.117188 18.035156 10.171875 17.921875 10.171875 C 17.8125 10.171875 17.726562 10.109375 17.667969 9.976562 L 17.570312 9.648438 C 17.476562 9.34375 17.394531 9.023438 17.320312 8.691406 Z M 17.320312 8.691406 " fill-opacity="1" fill-rule="nonzero"/><path fill="#ffbd59" d="M 9.277344 14.566406 C 9.191406 14.566406 9.113281 14.523438 9.0625 14.449219 L 8.542969 13.671875 C 8.464844 13.550781 8.496094 13.390625 8.617188 13.3125 C 8.734375 13.230469 8.894531 13.261719 8.976562 13.382812 L 9.246094 13.789062 L 10.085938 12.113281 C 10.148438 11.984375 10.304688 11.933594 10.433594 11.996094 C 10.5625 12.0625 10.613281 12.21875 10.550781 12.34375 L 9.511719 14.421875 C 9.46875 14.503906 9.386719 14.558594 9.296875 14.5625 C 9.289062 14.566406 9.285156 14.566406 9.277344 14.566406 Z M 9.277344 14.566406 " fill-opacity="1" fill-rule="nonzero"/><path fill="#ffbd59" d="M 10.023438 17.417969 L 9.3125 17.417969 C 9.007812 17.417969 8.761719 17.171875 8.761719 16.863281 L 8.761719 16.15625 C 8.761719 15.851562 9.007812 15.601562 9.3125 15.601562 L 10.023438 15.601562 C 10.328125 15.601562 10.578125 15.851562 10.578125 16.15625 L 10.578125 16.863281 C 10.578125 17.171875 10.328125 17.417969 10.023438 17.417969 Z M 9.3125 16.121094 C 9.296875 16.121094 9.277344 16.136719 9.277344 16.15625 L 9.277344 16.863281 C 9.277344 16.882812 9.296875 16.898438 9.3125 16.898438 L 10.023438 16.898438 C 10.042969 16.898438 10.058594 16.882812 10.058594 16.863281 L 10.058594 16.15625 C 10.058594 16.136719 10.042969 16.121094 10.023438 16.121094 Z M 9.3125 16.121094 " fill-opacity="1" fill-rule="nonzero"/><path fill="#ffbd59" d="M 10.015625 20.273438 L 9.320312 20.273438 C 9.011719 20.273438 8.761719 20.019531 8.761719 19.710938 L 8.761719 19.019531 C 8.761719 18.707031 9.011719 18.457031 9.320312 18.457031 L 10.015625 18.457031 C 10.324219 18.457031 10.578125 18.707031 10.578125 19.019531 L 10.578125 19.710938 C 10.578125 20.019531 10.324219 20.273438 10.015625 20.273438 Z M 9.320312 18.976562 C 9.296875 18.976562 9.277344 18.996094 9.277344 19.019531 L 9.277344 19.710938 C 9.277344 19.734375 9.296875 19.753906 9.320312 19.753906 L 10.015625 19.753906 C 10.039062 19.753906 10.058594 19.734375 10.058594 19.710938 L 10.058594 19.019531 C 10.058594 18.996094 10.039062 18.976562 10.015625 18.976562 Z M 9.320312 18.976562 " fill-opacity="1" fill-rule="nonzero"/><path fill="#ffbd59" d="M 18.101562 13.527344 L 11.613281 13.527344 C 11.472656 13.527344 11.355469 13.410156 11.355469 13.265625 C 11.355469 13.125 11.472656 13.007812 11.613281 13.007812 L 18.101562 13.007812 C 18.242188 13.007812 18.359375 13.125 18.359375 13.265625 C 18.359375 13.410156 18.242188 13.527344 18.101562 13.527344 Z M 18.101562 13.527344 " fill-opacity="1" fill-rule="nonzero"/><path fill="#ffbd59" d="M 18.101562 16.640625 L 11.613281 16.640625 C 11.472656 16.640625 11.355469 16.523438 11.355469 16.378906 C 11.355469 16.238281 11.472656 16.121094 11.613281 16.121094 L 18.101562 16.121094 C 18.242188 16.121094 18.359375 16.238281 18.359375 16.378906 C 18.359375 16.523438 18.242188 16.640625 18.101562 16.640625 Z M 18.101562 16.640625 " fill-opacity="1" fill-rule="nonzero"/><path fill="#ffbd59" d="M 18.101562 19.492188 L 11.613281 19.492188 C 11.472656 19.492188 11.355469 19.378906 11.355469 19.234375 C 11.355469 19.089844 11.472656 18.976562 11.613281 18.976562 L 18.101562 18.976562 C 18.242188 18.976562 18.359375 19.089844 18.359375 19.234375 C 18.359375 19.378906 18.242188 19.492188 18.101562 19.492188 Z M 18.101562 19.492188 " fill-opacity="1" fill-rule="nonzero"/><path fill="#ffbd59" d="M 20.78125 17.679688 C 20.714844 17.679688 20.648438 17.652344 20.597656 17.601562 C 20.496094 17.5 20.496094 17.335938 20.597656 17.234375 L 26.757812 11.074219 C 27.003906 10.824219 27.003906 10.417969 26.757812 10.167969 L 26.417969 9.835938 C 26.296875 9.710938 26.136719 9.644531 25.96875 9.644531 C 25.96875 9.644531 25.96875 9.644531 25.964844 9.644531 C 25.796875 9.644531 25.632812 9.710938 25.511719 9.835938 L 23.984375 11.363281 C 23.882812 11.464844 23.71875 11.464844 23.617188 11.363281 C 23.515625 11.261719 23.515625 11.097656 23.617188 10.996094 L 25.144531 9.46875 C 25.363281 9.246094 25.65625 9.125 25.964844 9.125 C 25.96875 9.125 25.96875 9.125 25.96875 9.125 C 26.277344 9.125 26.570312 9.25 26.785156 9.46875 L 27.113281 9.792969 C 27.574219 10.253906 27.574219 10.988281 27.125 11.441406 L 20.964844 17.601562 C 20.914062 17.652344 20.847656 17.679688 20.78125 17.679688 Z M 20.78125 17.679688 " fill-opacity="1" fill-rule="nonzero"/><path fill="#ffbd59" d="M 19.167969 16.070312 C 19.101562 16.070312 19.035156 16.042969 18.984375 15.992188 C 18.882812 15.890625 18.882812 15.726562 18.984375 15.625 L 23.058594 11.554688 C 23.15625 11.453125 23.320312 11.453125 23.421875 11.554688 C 23.523438 11.65625 23.523438 11.820312 23.421875 11.921875 L 19.351562 15.992188 C 19.300781 16.042969 19.234375 16.070312 19.167969 16.070312 Z M 19.167969 16.070312 " fill-opacity="1" fill-rule="nonzero"/><path fill="#ffbd59" d="M 18.320312 18.527344 C 18.253906 18.527344 18.1875 18.5 18.136719 18.449219 C 18.066406 18.378906 18.042969 18.277344 18.074219 18.183594 L 18.925781 15.722656 C 18.949219 15.65625 19 15.601562 19.066406 15.570312 C 19.132812 15.542969 19.207031 15.542969 19.273438 15.570312 C 20.207031 15.984375 20.78125 16.5625 21.027344 17.339844 C 21.070312 17.472656 20.996094 17.617188 20.863281 17.664062 L 18.40625 18.511719 C 18.378906 18.523438 18.347656 18.527344 18.320312 18.527344 Z M 19.320312 16.167969 L 18.738281 17.847656 L 20.441406 17.261719 C 20.234375 16.816406 19.863281 16.457031 19.320312 16.167969 Z M 19.320312 16.167969 " fill-opacity="1" fill-rule="nonzero"/><path fill="#ffbd59" d="M 25.667969 12.792969 C 25.597656 12.792969 25.53125 12.765625 25.484375 12.714844 L 23.875 11.105469 C 23.773438 11.003906 23.773438 10.839844 23.875 10.738281 L 24.53125 10.082031 C 24.582031 10.03125 24.644531 10.003906 24.714844 10.003906 C 24.785156 10.003906 24.851562 10.03125 24.898438 10.082031 L 26.507812 11.691406 C 26.609375 11.792969 26.609375 11.957031 26.507812 12.058594 L 25.851562 12.714844 C 25.800781 12.761719 25.734375 12.792969 25.667969 12.792969 Z M 24.425781 10.921875 L 25.667969 12.164062 L 25.957031 11.875 L 24.714844 10.632812 Z M 24.425781 10.921875 " fill-opacity="1" fill-rule="nonzero"/><path fill="#ffbd59" d="M 19.554688 18.101562 C 19.4375 18.101562 19.332031 18.023438 19.304688 17.90625 C 19.265625 17.761719 19.1875 17.625 19.074219 17.511719 C 18.964844 17.402344 18.828125 17.324219 18.679688 17.285156 C 18.542969 17.25 18.457031 17.109375 18.492188 16.96875 C 18.53125 16.832031 18.671875 16.746094 18.808594 16.78125 C 19.046875 16.84375 19.265625 16.96875 19.441406 17.144531 C 19.617188 17.324219 19.746094 17.539062 19.804688 17.777344 C 19.839844 17.917969 19.757812 18.058594 19.617188 18.09375 C 19.597656 18.097656 19.574219 18.101562 19.554688 18.101562 Z M 19.554688 18.101562 " fill-opacity="1" fill-rule="nonzero"/><path fill="#ffbd59" d="M 21.449219 15.789062 C 21.296875 15.789062 21.140625 15.730469 21.023438 15.613281 L 20.976562 15.566406 C 20.738281 15.328125 20.738281 14.945312 20.976562 14.710938 L 23.257812 12.425781 C 23.492188 12.191406 23.878906 12.191406 24.113281 12.425781 L 24.160156 12.476562 C 24.398438 12.710938 24.398438 13.09375 24.160156 13.332031 L 21.878906 15.613281 C 21.761719 15.730469 21.605469 15.789062 21.449219 15.789062 Z M 23.6875 12.769531 C 23.671875 12.769531 23.648438 12.773438 23.625 12.792969 L 21.339844 15.078125 C 21.320312 15.097656 21.316406 15.125 21.316406 15.136719 C 21.316406 15.152344 21.320312 15.175781 21.339844 15.199219 L 21.390625 15.246094 C 21.421875 15.28125 21.476562 15.28125 21.511719 15.246094 L 23.792969 12.964844 C 23.828125 12.929688 23.828125 12.875 23.792969 12.84375 L 23.746094 12.792969 C 23.722656 12.773438 23.699219 12.769531 23.6875 12.769531 Z M 23.6875 12.769531 " fill-opacity="1" fill-rule="nonzero"/><path fill="#ffbd59" d="M 22.25 5.222656 C 22.203125 5.222656 22.15625 5.210938 22.113281 5.183594 C 21.992188 5.105469 21.957031 4.945312 22.035156 4.824219 L 22.816406 3.605469 C 22.894531 3.484375 23.054688 3.449219 23.175781 3.527344 C 23.296875 3.605469 23.332031 3.765625 23.253906 3.886719 L 22.46875 5.105469 C 22.421875 5.183594 22.335938 5.222656 22.25 5.222656 Z M 22.25 5.222656 " fill-opacity="1" fill-rule="nonzero"/><g clip-path="url(#402823dcfa)"><path fill="#ffbd59" d="M 23.5 3.285156 C 23.453125 3.285156 23.402344 3.269531 23.359375 3.242188 C 23.238281 3.164062 23.203125 3.003906 23.28125 2.882812 L 24.367188 1.191406 C 24.445312 1.070312 24.605469 1.035156 24.726562 1.113281 C 24.847656 1.191406 24.882812 1.351562 24.804688 1.472656 L 23.71875 3.164062 C 23.667969 3.242188 23.585938 3.285156 23.5 3.285156 Z M 23.5 3.285156 " fill-opacity="1" fill-rule="nonzero"/></g><g clip-path="url(#572e9f13dd)"><path fill="#ffbd59" d="M 20.953125 4.707031 C 20.8125 4.707031 20.695312 4.589844 20.695312 4.445312 L 20.695312 2.109375 C 20.695312 1.96875 20.8125 1.851562 20.953125 1.851562 C 21.097656 1.851562 21.214844 1.96875 21.214844 2.109375 L 21.214844 4.445312 C 21.214844 4.589844 21.097656 4.707031 20.953125 4.707031 Z M 20.953125 4.707031 " fill-opacity="1" fill-rule="nonzero"/></g><path fill="#ffbd59" d="M 23.035156 6.15625 C 22.941406 6.15625 22.851562 6.105469 22.804688 6.015625 C 22.738281 5.890625 22.785156 5.730469 22.914062 5.664062 L 24.980469 4.582031 C 25.109375 4.515625 25.265625 4.566406 25.332031 4.691406 C 25.398438 4.820312 25.347656 4.976562 25.222656 5.042969 L 23.152344 6.125 C 23.117188 6.144531 23.074219 6.15625 23.035156 6.15625 Z M 23.035156 6.15625 " fill-opacity="1" fill-rule="nonzero"/><path fill="#ffbd59" d="M 5.386719 5.222656 C 5.300781 5.222656 5.21875 5.183594 5.167969 5.105469 L 4.417969 3.933594 C 4.339844 3.8125 4.375 3.652344 4.496094 3.574219 C 4.617188 3.496094 4.777344 3.53125 4.851562 3.652344 L 5.605469 4.824219 C 5.683594 4.945312 5.648438 5.105469 5.527344 5.183594 C 5.484375 5.210938 5.4375 5.222656 5.386719 5.222656 Z M 5.386719 5.222656 " fill-opacity="1" fill-rule="nonzero"/><g clip-path="url(#39487815dc)"><path fill="#ffbd59" d="M 4.21875 3.410156 C 4.136719 3.410156 4.050781 3.367188 4 3.289062 L 2.835938 1.472656 C 2.757812 1.351562 2.792969 1.191406 2.914062 1.113281 C 3.03125 1.035156 3.191406 1.070312 3.269531 1.191406 L 4.4375 3.007812 C 4.515625 3.128906 4.480469 3.289062 4.359375 3.367188 C 4.316406 3.394531 4.269531 3.410156 4.21875 3.410156 Z M 4.21875 3.410156 " fill-opacity="1" fill-rule="nonzero"/></g><g clip-path="url(#57082e47d2)"><path fill="#ffbd59" d="M 6.683594 4.707031 C 6.542969 4.707031 6.425781 4.589844 6.425781 4.445312 L 6.425781 2.109375 C 6.425781 1.96875 6.542969 1.851562 6.683594 1.851562 C 6.828125 1.851562 6.945312 1.96875 6.945312 2.109375 L 6.945312 4.445312 C 6.945312 4.589844 6.828125 4.707031 6.683594 4.707031 Z M 6.683594 4.707031 " fill-opacity="1" fill-rule="nonzero"/></g><path fill="#ffbd59" d="M 4.605469 6.15625 C 4.566406 6.15625 4.523438 6.144531 4.484375 6.125 L 2.417969 5.042969 C 2.289062 4.976562 2.242188 4.820312 2.308594 4.691406 C 2.375 4.566406 2.53125 4.515625 2.65625 4.582031 L 4.726562 5.664062 C 4.851562 5.730469 4.902344 5.890625 4.835938 6.015625 C 4.789062 6.105469 4.699219 6.15625 4.605469 6.15625 Z M 4.605469 6.15625 " fill-opacity="1" fill-rule="nonzero"/><path fill="#ffbd59" d="M 26.664062 13.527344 C 26.519531 13.527344 26.402344 13.410156 26.402344 13.265625 C 26.402344 13.125 26.519531 13.007812 26.664062 13.007812 C 27.234375 13.007812 27.699219 12.542969 27.699219 11.96875 C 27.699219 11.828125 27.816406 11.710938 27.960938 11.710938 C 28.101562 11.710938 28.21875 11.828125 28.21875 11.96875 C 28.21875 12.828125 27.519531 13.527344 26.664062 13.527344 Z M 26.664062 13.527344 " fill-opacity="1" fill-rule="nonzero"/><g clip-path="url(#e495feddb8)"><path fill="#ffbd59" d="M 26.921875 14.824219 C 26.777344 14.824219 26.664062 14.707031 26.664062 14.566406 C 26.664062 14.421875 26.777344 14.304688 26.921875 14.304688 C 28.066406 14.304688 28.996094 13.375 28.996094 12.230469 C 28.996094 12.085938 29.113281 11.96875 29.257812 11.96875 C 29.398438 11.96875 29.515625 12.085938 29.515625 12.230469 C 29.515625 13.660156 28.351562 14.824219 26.921875 14.824219 Z M 26.921875 14.824219 " fill-opacity="1" fill-rule="nonzero"/></g><path fill="#ffbd59" d="M 14.402344 3.183594 C 14.902344 3.183594 14.90625 2.40625 14.402344 2.40625 C 13.902344 2.40625 13.902344 3.183594 14.402344 3.183594 Z M 14.402344 3.183594 " fill-opacity="1" fill-rule="nonzero"/></svg>